<svg width="62" height="14" viewBox="0 0 62 14" fill="none" xmlns="http://www.w3.org/2000/svg">
<path d="M0.885719 7.15H11.3977V8.482H0.885719V7.15ZM28.9268 7.366H33.9308V8.698H28.9268V7.366ZM20.6828 4.828L19.7108 2.938H19.6388L19.8548 4.756V13H18.4148V0.202H19.2068L24.8948 8.536L25.8128 10.336H25.9028L25.7048 8.608V0.399999H27.1448V13.198H26.3168L20.6828 4.828ZM28.5848 3.244C28.5848 2.704 28.6568 2.242 28.8008 1.858C28.9448 1.474 29.1368 1.156 29.3768 0.903999C29.6288 0.651999 29.9228 0.472 30.2588 0.364C30.6068 0.244 30.9788 0.184 31.3748 0.184C31.7708 0.184 32.1368 0.238 32.4728 0.346C32.8208 0.454 33.1148 0.628 33.3548 0.868C33.6068 1.108 33.8048 1.426 33.9488 1.822C34.0928 2.206 34.1648 2.68 34.1648 3.244C34.1648 3.808 34.0928 4.288 33.9488 4.684C33.8048 5.068 33.6068 5.38 33.3548 5.62C33.1148 5.86 32.8208 6.034 32.4728 6.142C32.1368 6.25 31.7708 6.304 31.3748 6.304C30.9788 6.304 30.6068 6.25 30.2588 6.142C29.9228 6.034 29.6288 5.86 29.3768 5.62C29.1368 5.38 28.9448 5.068 28.8008 4.684C28.6568 4.288 28.5848 3.808 28.5848 3.244ZM29.9168 3.244C29.9168 3.964 30.0428 4.48 30.2948 4.792C30.5588 5.104 30.9188 5.26 31.3748 5.26C31.6028 5.26 31.8068 5.23 31.9868 5.17C32.1668 5.098 32.3168 4.99 32.4368 4.846C32.5688 4.69 32.6648 4.486 32.7248 4.234C32.7968 3.97 32.8328 3.64 32.8328 3.244C32.8328 2.848 32.7968 2.524 32.7248 2.272C32.6648 2.008 32.5688 1.804 32.4368 1.66C32.3168 1.504 32.1668 1.396 31.9868 1.336C31.8068 1.264 31.6028 1.228 31.3748 1.228C30.9188 1.228 30.5588 1.372 30.2948 1.66C30.0428 1.936 29.9168 2.464 29.9168 3.244ZM43.3346 3.262C43.3346 3.898 43.2146 4.552 42.9746 5.224C42.7466 5.884 42.4406 6.55 42.0566 7.222C41.6846 7.894 41.2646 8.554 40.7966 9.202C40.3286 9.838 39.8606 10.444 39.3926 11.02L38.5106 11.794V11.866L39.6626 11.668H43.5866V13H36.4226V12.478C36.6866 12.202 37.0046 11.86 37.3766 11.452C37.7486 11.044 38.1326 10.594 38.5286 10.102C38.9366 9.598 39.3326 9.07 39.7166 8.518C40.1126 7.954 40.4666 7.384 40.7786 6.808C41.1026 6.232 41.3606 5.662 41.5526 5.098C41.7446 4.534 41.8406 4 41.8406 3.496C41.8406 2.908 41.6726 2.422 41.3366 2.038C41.0006 1.642 40.4906 1.444 39.8066 1.444C39.3506 1.444 38.9066 1.54 38.4746 1.732C38.0426 1.912 37.6706 2.122 37.3586 2.362L36.7646 1.336C37.1846 0.976 37.6826 0.693999 38.2586 0.489999C38.8346 0.286 39.4526 0.184 40.1126 0.184C40.6286 0.184 41.0846 0.261999 41.4806 0.417999C41.8766 0.561999 42.2126 0.771999 42.4886 1.048C42.7646 1.324 42.9746 1.654 43.1186 2.038C43.2626 2.41 43.3346 2.818 43.3346 3.262ZM50.5967 7.15H61.1087V8.482H50.5967V7.15Z" fill="white"/>
</svg>
