<svg width="62" height="14" viewBox="0 0 62 14" fill="none" xmlns="http://www.w3.org/2000/svg">
<path d="M0.885719 7.15H11.3977V8.482H0.885719V7.15ZM28.9268 7.366H33.9308V8.698H28.9268V7.366ZM20.6828 4.828L19.7108 2.938H19.6388L19.8548 4.756V13H18.4148V0.202H19.2068L24.8948 8.536L25.8128 10.336H25.9028L25.7048 8.608V0.399999H27.1448V13.198H26.3168L20.6828 4.828ZM28.5848 3.244C28.5848 2.704 28.6568 2.242 28.8008 1.858C28.9448 1.474 29.1368 1.156 29.3768 0.903999C29.6288 0.651999 29.9228 0.472 30.2588 0.364C30.6068 0.244 30.9788 0.184 31.3748 0.184C31.7708 0.184 32.1368 0.238 32.4728 0.346C32.8208 0.454 33.1148 0.628 33.3548 0.868C33.6068 1.108 33.8048 1.426 33.9488 1.822C34.0928 2.206 34.1648 2.68 34.1648 3.244C34.1648 3.808 34.0928 4.288 33.9488 4.684C33.8048 5.068 33.6068 5.38 33.3548 5.62C33.1148 5.86 32.8208 6.034 32.4728 6.142C32.1368 6.25 31.7708 6.304 31.3748 6.304C30.9788 6.304 30.6068 6.25 30.2588 6.142C29.9228 6.034 29.6288 5.86 29.3768 5.62C29.1368 5.38 28.9448 5.068 28.8008 4.684C28.6568 4.288 28.5848 3.808 28.5848 3.244ZM29.9168 3.244C29.9168 3.964 30.0428 4.48 30.2948 4.792C30.5588 5.104 30.9188 5.26 31.3748 5.26C31.6028 5.26 31.8068 5.23 31.9868 5.17C32.1668 5.098 32.3168 4.99 32.4368 4.846C32.5688 4.69 32.6648 4.486 32.7248 4.234C32.7968 3.97 32.8328 3.64 32.8328 3.244C32.8328 2.848 32.7968 2.524 32.7248 2.272C32.6648 2.008 32.5688 1.804 32.4368 1.66C32.3168 1.504 32.1668 1.396 31.9868 1.336C31.8068 1.264 31.6028 1.228 31.3748 1.228C30.9188 1.228 30.5588 1.372 30.2948 1.66C30.0428 1.936 29.9168 2.464 29.9168 3.244ZM39.5186 11.956C39.9266 11.956 40.3046 11.896 40.6526 11.776C41.0006 11.656 41.3006 11.482 41.5526 11.254C41.8046 11.014 42.0026 10.732 42.1466 10.408C42.2906 10.084 42.3626 9.73 42.3626 9.346C42.3626 8.506 42.1106 7.882 41.6066 7.474C41.1146 7.066 40.4306 6.862 39.5546 6.862H38.2226V6.34L40.8146 2.344L41.6426 1.552L40.4726 1.732H36.9086V0.399999H43.3346V0.922L40.4726 5.224L39.8426 5.746V5.782L40.4546 5.656C40.9346 5.668 41.3786 5.758 41.7866 5.926C42.1946 6.082 42.5486 6.316 42.8486 6.628C43.1486 6.928 43.3826 7.294 43.5506 7.726C43.7186 8.146 43.8026 8.626 43.8026 9.166C43.8026 9.814 43.6886 10.39 43.4606 10.894C43.2326 11.398 42.9206 11.824 42.5246 12.172C42.1406 12.508 41.6846 12.766 41.1566 12.946C40.6286 13.126 40.0706 13.216 39.4826 13.216C38.9426 13.216 38.4566 13.174 38.0246 13.09C37.5926 13.006 37.2146 12.898 36.8906 12.766L37.2686 11.488C37.5446 11.62 37.8686 11.734 38.2406 11.83C38.6246 11.914 39.0506 11.956 39.5186 11.956ZM50.5967 7.15H61.1087V8.482H50.5967V7.15Z" fill="#333333"/>
</svg>
