<svg width="62" height="14" viewBox="0 0 62 14" fill="none" xmlns="http://www.w3.org/2000/svg">
<path d="M0.885719 7.15H11.3977V8.482H0.885719V7.15ZM28.9268 7.366H33.9308V8.698H28.9268V7.366ZM20.6828 4.828L19.7108 2.938H19.6388L19.8548 4.756V13H18.4148V0.202H19.2068L24.8948 8.536L25.8128 10.336H25.9028L25.7048 8.608V0.399999H27.1448V13.198H26.3168L20.6828 4.828ZM28.5848 3.244C28.5848 2.704 28.6568 2.242 28.8008 1.858C28.9448 1.474 29.1368 1.156 29.3768 0.903999C29.6288 0.651999 29.9228 0.472 30.2588 0.364C30.6068 0.244 30.9788 0.184 31.3748 0.184C31.7708 0.184 32.1368 0.238 32.4728 0.346C32.8208 0.454 33.1148 0.628 33.3548 0.868C33.6068 1.108 33.8048 1.426 33.9488 1.822C34.0928 2.206 34.1648 2.68 34.1648 3.244C34.1648 3.808 34.0928 4.288 33.9488 4.684C33.8048 5.068 33.6068 5.38 33.3548 5.62C33.1148 5.86 32.8208 6.034 32.4728 6.142C32.1368 6.25 31.7708 6.304 31.3748 6.304C30.9788 6.304 30.6068 6.25 30.2588 6.142C29.9228 6.034 29.6288 5.86 29.3768 5.62C29.1368 5.38 28.9448 5.068 28.8008 4.684C28.6568 4.288 28.5848 3.808 28.5848 3.244ZM29.9168 3.244C29.9168 3.964 30.0428 4.48 30.2948 4.792C30.5588 5.104 30.9188 5.26 31.3748 5.26C31.6028 5.26 31.8068 5.23 31.9868 5.17C32.1668 5.098 32.3168 4.99 32.4368 4.846C32.5688 4.69 32.6648 4.486 32.7248 4.234C32.7968 3.97 32.8328 3.64 32.8328 3.244C32.8328 2.848 32.7968 2.524 32.7248 2.272C32.6648 2.008 32.5688 1.804 32.4368 1.66C32.3168 1.504 32.1668 1.396 31.9868 1.336C31.8068 1.264 31.6028 1.228 31.3748 1.228C30.9188 1.228 30.5588 1.372 30.2948 1.66C30.0428 1.936 29.9168 2.464 29.9168 3.244ZM39.1406 11.956C39.9686 11.956 40.6526 11.716 41.1926 11.236C41.7326 10.756 42.0026 10.06 42.0026 9.148C42.0026 8.272 41.7326 7.618 41.1926 7.186C40.6646 6.754 39.9326 6.538 38.9966 6.538L37.4846 6.628V0.399999H43.1006V1.732H38.8346V5.314L39.6086 5.278C40.7966 5.29 41.7326 5.62 42.4166 6.268C43.1006 6.916 43.4426 7.846 43.4426 9.058C43.4426 9.73 43.3286 10.33 43.1006 10.858C42.8726 11.374 42.5606 11.806 42.1646 12.154C41.7806 12.502 41.3246 12.766 40.7966 12.946C40.2686 13.126 39.7046 13.216 39.1046 13.216C38.5646 13.216 38.1086 13.186 37.7366 13.126C37.3646 13.066 37.0166 12.976 36.6926 12.856L37.0706 11.632C37.3466 11.74 37.6406 11.824 37.9526 11.884C38.2766 11.932 38.6726 11.956 39.1406 11.956ZM50.5967 7.15H61.1087V8.482H50.5967V7.15Z" fill="#333333"/>
</svg>
